<svg width="270" height="64" viewBox="0 0 270 64" fill="none" xmlns="http://www.w3.org/2000/svg">
<path fill-rule="evenodd" clip-rule="evenodd" d="M92.0126 9.2816V7.20316L86.267 9.33873H86.2561V11.4716H86.267L92.0126 13.6072V11.526L89.0664 10.3997L92.0126 9.27888V9.2816Z" fill="#F7DD43"/>
<path fill-rule="evenodd" clip-rule="evenodd" d="M125.292 13.5037V11.4253L128.236 10.3072L125.292 9.18905V7.1106L131.03 9.24618H131.043V11.3817H131.03L125.292 13.5064V13.5037ZM122.827 4.16977L119.454 15H121.456L124.83 4.16977H122.827Z" fill="#F7DD43"/>
<path fill-rule="evenodd" clip-rule="evenodd" d="M100.454 6.91747C101.026 7.54317 101.325 8.3702 101.29 9.21627V13.8302H99.2873V9.64066C99.3118 9.17274 99.1621 8.7157 98.8683 8.35116C98.5908 8.02742 98.1801 7.84787 97.7529 7.86691C96.4988 7.86691 95.8704 8.73746 95.8704 10.4758V13.8302H93.8681V6.25639H95.8704V6.93923C96.507 6.32168 97.3694 5.99251 98.2562 6.03059C99.0833 5.99523 99.8831 6.31896 100.454 6.91747Z" fill="#F7DD43"/>
<path fill-rule="evenodd" clip-rule="evenodd" d="M103.841 3V13.8302H105.844V3H103.841Z" fill="#F7DD43"/>
<path fill-rule="evenodd" clip-rule="evenodd" d="M117.166 13.8302H115.496L113.858 9.36862L112.204 13.8302H110.534L107.726 6.2428H109.867L111.445 10.7806L113.072 6.2428H114.636L116.263 10.7942L117.841 6.2428H119.982L117.172 13.8302H117.166Z" fill="#F7DD43"/>
<path d="M140.58 17.9981C138.653 17.9981 136.629 17.6331 135.043 16.754V1.24411C136.605 0.389878 138.628 2.85548e-05 140.58 2.85548e-05C142.531 2.85548e-05 144.507 0.365035 146.066 1.24411V7.19505H142.139V3.14558C141.676 2.95066 141.115 2.87804 140.555 2.87804C139.995 2.87804 139.481 2.95066 138.993 3.14558V14.8525C139.456 15.0475 139.993 15.1201 140.555 15.1201C141.117 15.1201 141.652 15.0475 142.139 14.8525V10.805H146.066V16.7559C144.53 17.6101 142.506 17.9752 140.58 18V17.9981Z" fill="#F7DD43"/>
<path d="M153.431 17.9981C151.358 17.9981 149.359 17.5585 147.773 16.6565V1.3167C149.334 0.439536 151.335 0 153.431 0C155.528 0 157.479 0.414693 159.04 1.3167V16.6565C157.504 17.5585 155.48 17.9732 153.431 17.9981ZM155.115 3.19524C154.652 3.00031 154.091 2.90285 153.408 2.90285C152.726 2.90285 152.189 3.00031 151.725 3.19524V14.7799C152.187 14.9997 152.749 15.0971 153.408 15.0971C154.068 15.0971 154.628 14.9997 155.115 14.7799V3.19524Z" fill="#F7DD43"/>
<path d="M165.893 11.4127H164.844V17.7783H160.869V0.219779H165.893C168.284 0.219779 170.088 0.707092 171.502 1.70656V9.92589C170.113 10.9024 168.282 11.4127 165.893 11.4127ZM167.552 3.24303C167.187 2.97548 166.698 2.85318 165.868 2.85318H164.794V8.77927H165.868C166.673 8.77927 167.16 8.65697 167.552 8.41427V3.24303Z" fill="#F7DD43"/>
<path d="M179.817 17.7783V11.4127H176.891V17.7783H172.941V1.29185C174.38 0.437625 176.404 0 178.355 0C180.306 0 182.305 0.439537 183.744 1.29185V17.7783H179.817ZM179.817 3.04809C179.402 2.85316 178.89 2.7557 178.353 2.7557C177.816 2.7557 177.304 2.85316 176.889 3.04809V8.63211H179.815V3.04809H179.817Z" fill="#F7DD43"/>
<path d="M72.9492 47.9248H77.3291C77.2412 49.3604 76.8457 50.6348 76.1426 51.748C75.4492 52.8613 74.4775 53.7305 73.2275 54.3555C71.9873 54.9805 70.4932 55.293 68.7451 55.293C67.3779 55.293 66.1523 55.0586 65.0684 54.5898C63.9844 54.1113 63.0566 53.4277 62.2852 52.5391C61.5234 51.6504 60.9424 50.5762 60.542 49.3164C60.1416 48.0566 59.9414 46.6455 59.9414 45.083V43.6035C59.9414 42.041 60.1465 40.6299 60.5566 39.3701C60.9766 38.1006 61.5723 37.0215 62.3438 36.1328C63.125 35.2441 64.0576 34.5605 65.1416 34.082C66.2256 33.6035 67.4365 33.3643 68.7744 33.3643C70.5518 33.3643 72.0508 33.6865 73.2715 34.3311C74.502 34.9756 75.4541 35.8643 76.1279 36.9971C76.8115 38.1299 77.2217 39.4189 77.3584 40.8643H72.9639C72.915 40.0049 72.7441 39.2773 72.4512 38.6816C72.1582 38.0762 71.7139 37.6221 71.1182 37.3193C70.5322 37.0068 69.751 36.8506 68.7744 36.8506C68.042 36.8506 67.4023 36.9873 66.8555 37.2607C66.3086 37.5342 65.8496 37.9492 65.4785 38.5059C65.1074 39.0625 64.8291 39.7656 64.6436 40.6152C64.4678 41.4551 64.3799 42.4414 64.3799 43.5742V45.083C64.3799 46.1865 64.4629 47.1582 64.6289 47.998C64.7949 48.8281 65.0488 49.5312 65.3906 50.1074C65.7422 50.6738 66.1914 51.1035 66.7383 51.3965C67.2949 51.6797 67.9639 51.8213 68.7451 51.8213C69.6631 51.8213 70.4199 51.6748 71.0156 51.3818C71.6113 51.0889 72.0654 50.6543 72.3779 50.0781C72.7002 49.502 72.8906 48.7842 72.9492 47.9248ZM88.8867 37.3193L83.0859 55H78.4131L86.3379 33.6719H89.3115L88.8867 37.3193ZM93.7061 55L87.8906 37.3193L87.4219 33.6719H90.4248L98.3936 55H93.7061ZM93.4424 47.0605V50.5029H82.1777V47.0605H93.4424ZM114.082 51.5723V55H103.345V51.5723H114.082ZM104.766 33.6719V55H100.371V33.6719H104.766ZM130.913 51.5723V55H119.561V51.5723H130.913ZM120.996 33.6719V55H116.602V33.6719H120.996ZM129.434 42.3584V45.6982H119.561V42.3584H129.434ZM130.898 33.6719V37.1143H119.561V33.6719H130.898ZM150.835 33.6719V55H146.44L137.871 40.7031V55H133.477V33.6719H137.871L146.455 47.9834V33.6719H150.835ZM161.206 55H156.562L156.592 51.5723H161.206C162.358 51.5723 163.33 51.3135 164.121 50.7959C164.912 50.2686 165.508 49.502 165.908 48.4961C166.318 47.4902 166.523 46.2744 166.523 44.8486V43.8086C166.523 42.7148 166.406 41.7529 166.172 40.9229C165.947 40.0928 165.61 39.3945 165.161 38.8281C164.712 38.2617 164.16 37.8369 163.506 37.5537C162.852 37.2607 162.1 37.1143 161.25 37.1143H156.475V33.6719H161.25C162.676 33.6719 163.979 33.916 165.161 34.4043C166.353 34.8828 167.383 35.5713 168.252 36.4697C169.121 37.3682 169.79 38.4424 170.259 39.6924C170.737 40.9326 170.977 42.3145 170.977 43.8379V44.8486C170.977 46.3623 170.737 47.7441 170.259 48.9941C169.79 50.2441 169.121 51.3184 168.252 52.2168C167.393 53.1055 166.362 53.7939 165.161 54.2822C163.97 54.7607 162.651 55 161.206 55ZM159.053 33.6719V55H154.658V33.6719H159.053ZM182.52 37.3193L176.719 55H172.046L179.971 33.6719H182.944L182.52 37.3193ZM187.339 55L181.523 37.3193L181.055 33.6719H184.058L192.026 55H187.339ZM187.075 47.0605V50.5029H175.811V47.0605H187.075ZM194.004 33.6719H201.958C203.589 33.6719 204.99 33.916 206.162 34.4043C207.344 34.8926 208.252 35.6152 208.887 36.5723C209.521 37.5293 209.839 38.7061 209.839 40.1025C209.839 41.2451 209.644 42.2266 209.253 43.0469C208.872 43.8574 208.33 44.5361 207.627 45.083C206.934 45.6201 206.118 46.0498 205.181 46.3721L203.789 47.1045H196.875L196.846 43.6768H201.987C202.759 43.6768 203.398 43.54 203.906 43.2666C204.414 42.9932 204.795 42.6123 205.049 42.124C205.312 41.6357 205.444 41.0693 205.444 40.4248C205.444 39.7412 205.317 39.1504 205.063 38.6523C204.81 38.1543 204.424 37.7734 203.906 37.5098C203.389 37.2461 202.739 37.1143 201.958 37.1143H198.398V55H194.004V33.6719ZM205.928 55L201.064 45.4932L205.708 45.4639L210.63 54.7949V55H205.928Z" fill="url(#paint0_linear_122_239)"/>
<defs>
<linearGradient id="paint0_linear_122_239" x1="135" y1="26" x2="135" y2="64" gradientUnits="userSpaceOnUse">
<stop stop-color="white"/>
<stop offset="1" stop-color="#D9D9D9" stop-opacity="0.8"/>
</linearGradient>
</defs>
</svg>
